# xmcd
#
# Track frame offsets: 
#        150
#        20995
#        36307
#        55211
#        87978
#        102029
#        118728
#        135079
#        151822
#        165666
#
# Disc length: 2587 seconds
#
# Revision: 2
# Processed by: cddbd v1.5.2PL0 Copyright (c) Steve Scherf et al.
# Submitted via: ExactAudioCopyFreeDBPlugin 1.0
#
DISCID=790a190a
DTITLE=Juhani - On Kaukana
DYEAR=2005
DGENRE=Hip-Hop
TTITLE0=Poljen Mun Pyörän
TTITLE1=Ilkeen Pienen Miehen Vikat Ajatukset
TTITLE2=On Kaukana
TTITLE3=100 Lasta
TTITLE4=Kadotitko Ruusut
TTITLE5=Seuraus
TTITLE6=Nimetön Turussa
TTITLE7=Uus Tarina
TTITLE8=Älkää Bommatko Aikatauluihin
TTITLE9=Spuli
EXTD=
EXTT0=
EXTT1=
EXTT2=
EXTT3=
EXTT4=
EXTT5=
EXTT6=
EXTT7=
EXTT8=
EXTT9=
PLAYORDER=
